<svg width="275" height="90" xmlns="http://www.w3.org/2000/svg" xmlns:xlink="http://www.w3.org/1999/xlink" xml:space="preserve" overflow="hidden"><defs><linearGradient x1="44.0881" y1="56.9897" x2="44.0881" y2="32.9232" gradientUnits="userSpaceOnUse" spreadMethod="pad" id="fill0"><stop offset="0" stop-color="#2E500B"/><stop offset="0.085" stop-color="#456B1C"/><stop offset="0.1746" stop-color="#588227"/><stop offset="0.271" stop-color="#69972F"/><stop offset="0.3741" stop-color="#77A835"/><stop offset="0.486" stop-color="#81B43A"/><stop offset="0.6115" stop-color="#88BD3D"/><stop offset="0.7614" stop-color="#8DC33F"/><stop offset="1" stop-color="#8FC640"/></linearGradient><linearGradient x1="71.6093" y1="56.9897" x2="71.6093" y2="32.9232" gradientUnits="userSpaceOnUse" spreadMethod="pad" id="fill1"><stop offset="0" stop-color="#002E35"/><stop offset="0.000555203" stop-color="#002E35"/><stop offset="0.0195" stop-color="#00353D"/><stop offset="0.1125" stop-color="#004F59"/><stop offset="0.211" stop-color="#00646F"/><stop offset="0.3136" stop-color="#017683"/><stop offset="0.4213" stop-color="#088492"/><stop offset="0.5359" stop-color="#0B8E9E"/><stop offset="0.6604" stop-color="#0B95A6"/><stop offset="0.8023" stop-color="#0B9AAB"/><stop offset="1" stop-color="#0B9DAE"/></linearGradient><linearGradient x1="99.1306" y1="56.986" x2="99.1306" y2="32.9195" gradientUnits="userSpaceOnUse" spreadMethod="pad" id="fill2"><stop offset="0" stop-color="#001300"/><stop offset="0.00140784" stop-color="#001300"/><stop offset="0.136" stop-color="#002A11"/><stop offset="0.291" stop-color="#023920"/><stop offset="0.4519" stop-color="#0E4329"/><stop offset="0.6189" stop-color="#154B2F"/><stop offset="0.796" stop-color="#194F32"/><stop offset="1" stop-color="#1A5134"/></linearGradient></defs><g><path d="M56.1214 35.4569 56.1214 54.4523C56.1214 55.8545 54.9861 56.9898 53.5839 56.9898L34.5886 56.9898C33.1864 56.9898 32.0511 55.8545 32.0511 54.4523L32.0511 35.4569C32.0511 34.0548 33.1864 32.9195 34.5886 32.9195L53.5839 32.9195C54.9861 32.9232 56.1214 34.0585 56.1214 35.4569Z" fill="url(#fill0)" transform="matrix(1 0 0 1.0622 -2.13659e-14 -1.01215)"/><path d="M83.6464 35.4569 83.6464 54.4523C83.6464 55.8545 82.5111 56.9898 81.1089 56.9898L62.1136 56.9898C60.7114 56.9898 59.5761 55.8545 59.5761 54.4523L59.5761 35.4569C59.5761 34.0548 60.7114 32.9195 62.1136 32.9195L81.1089 32.9195C82.5073 32.9232 83.6464 34.0585 83.6464 35.4569Z" fill="url(#fill1)" transform="matrix(1 0 0 1.0622 -2.13659e-14 -1.01215)"/><path d="M111.164 35.4569 111.164 54.4523C111.164 55.8545 110.029 56.9898 108.626 56.9898L89.631 56.9898C88.2289 56.9898 87.0936 55.8545 87.0936 54.4523L87.0936 35.4569C87.0936 34.0548 88.2289 32.9195 89.631 32.9195L108.626 32.9195C110.029 32.9232 111.164 34.0585 111.164 35.4569Z" fill="url(#fill2)" transform="matrix(1 0 0 1.0622 -2.13659e-14 -1.01215)"/><path d="M48.0315 51.287 46.5842 47.8248 41.3777 47.8248 39.9304 51.287 37.938 51.287 43.6483 37.705 44.3813 37.705 50.0916 51.287 48.0315 51.287ZM44.5693 42.9303C44.4716 42.7047 44.3738 42.4491 44.2761 42.1521 44.1783 41.8589 44.0881 41.5732 44.0017 41.2913L43.9603 41.2913C43.8889 41.5732 43.8024 41.8589 43.6972 42.1521 43.5919 42.4453 43.4904 42.7047 43.3927 42.9303L42.0694 46.2046 45.8888 46.2046 44.5693 42.9303Z" fill="#FFFFFF" transform="matrix(1 0 0 1.0622 -2.13659e-14 -1.01215)"/><path d="M77.173 51.5802 70.9101 44.7159C70.4064 44.1708 69.8839 43.5806 69.3388 42.9528 68.7937 42.325 68.29 41.7348 67.8313 41.1898L67.79 41.2123C67.8163 41.8288 67.8313 42.4153 67.8313 42.9754 67.8313 43.5355 67.8313 44.0656 67.8313 44.5693L67.8313 51.287 65.775 51.287 65.775 37.8929 67.1772 37.8929 72.9176 44.1896C73.113 44.4001 73.3311 44.6407 73.5679 44.9151 73.8047 45.1896 74.0491 45.464 74.3009 45.7459 74.5528 46.0279 74.8009 46.3098 75.0453 46.5955 75.2896 46.8812 75.5152 47.1519 75.7257 47.4037L75.7671 47.3812C75.7407 46.8624 75.7257 46.3324 75.7257 45.7873 75.7257 45.2422 75.7257 44.7234 75.7257 44.2347L75.7257 37.8929 77.782 37.8929 77.782 51.5802 77.173 51.5802Z" fill="#FFFFFF" transform="matrix(1 0 0 1.0622 -2.13659e-14 -1.01215)"/><path d="M102.803 43.31C102.559 43.7874 102.243 44.1783 101.86 44.4866 101.476 44.7948 101.044 45.0242 100.57 45.1783 100.093 45.3324 99.6193 45.4076 99.1419 45.4076L97.1269 45.4076 97.1269 51.2833 95.112 51.2833 95.112 37.8929 99.1419 37.8929C99.6193 37.8929 100.093 37.9719 100.57 38.1222 101.048 38.2764 101.476 38.5057 101.86 38.8139 102.243 39.1222 102.559 39.5131 102.803 39.9906 103.048 40.468 103.172 41.0206 103.172 41.6484 103.172 42.2762 103.051 42.8325 102.803 43.31ZM100.927 40.7462C100.803 40.4943 100.631 40.2838 100.412 40.1146 100.194 39.9455 99.9463 39.8214 99.6682 39.7387 99.3862 39.656 99.1005 39.6109 98.8073 39.6109L97.1495 39.6109 97.1495 43.6821 98.8073 43.6821C99.1005 43.6821 99.3862 43.6445 99.6682 43.5656 99.9463 43.4904 100.194 43.3663 100.412 43.1972 100.631 43.028 100.8 42.8175 100.927 42.5581 101.052 42.2987 101.115 41.9942 101.115 41.6446 101.115 41.3025 101.052 40.998 100.927 40.7462Z" fill="#FFFFFF" transform="matrix(1 0 0 1.0622 -2.13659e-14 -1.01215)"/><path d="M127.152 49.1217C126.956 49.6104 126.663 50.0352 126.268 50.3923 125.877 50.7495 125.392 51.0239 124.821 51.2231 124.246 51.4186 123.584 51.5163 122.829 51.5163 122.099 51.5163 121.43 51.4261 120.814 51.2419 120.197 51.0615 119.716 50.8509 119.366 50.6104L118.904 48.3849C119.547 48.8322 120.197 49.1706 120.851 49.4036 121.505 49.633 122.197 49.7495 122.923 49.7495 123.675 49.7495 124.276 49.5615 124.723 49.1819 125.171 48.8059 125.392 48.3022 125.392 47.6706 125.392 47.0842 125.208 46.5918 124.84 46.2008 124.471 45.8098 123.881 45.479 123.073 45.2159 121.874 44.8249 120.968 44.2949 120.355 43.6295 119.742 42.9641 119.434 42.1709 119.434 41.2461 119.434 40.7838 119.521 40.3327 119.697 39.8928 119.87 39.453 120.133 39.062 120.483 38.7237 120.833 38.3854 121.272 38.1147 121.802 37.9155 122.332 37.7162 122.953 37.6147 123.667 37.6147 124.336 37.6147 124.93 37.6974 125.449 37.8629 125.968 38.0283 126.344 38.2012 126.58 38.3816L126.182 40.0507C125.945 39.8815 125.588 39.7124 125.114 39.5357 124.641 39.3628 124.129 39.2726 123.588 39.2726 122.904 39.2726 122.366 39.453 121.975 39.8176 121.584 40.1823 121.389 40.6071 121.389 41.0995 121.389 41.9942 122.111 42.6897 123.55 43.1784 124.137 43.3739 124.671 43.6069 125.144 43.8701 125.618 44.137 126.028 44.4415 126.374 44.7836 126.716 45.1257 126.983 45.5204 127.171 45.9677 127.359 46.4151 127.453 46.9188 127.453 47.4789 127.445 48.0879 127.347 48.633 127.152 49.1217Z" fill="#009CAD" transform="matrix(1 0 0 1.0622 -2.13659e-14 -1.01215)"/><path d="M147.993 47.4977C147.587 48.3586 147.053 49.0879 146.388 49.6818 145.722 50.2758 144.967 50.7344 144.121 51.0577 143.275 51.381 142.403 51.5389 141.508 51.5389 140.614 51.5389 139.741 51.3772 138.896 51.0577 138.05 50.7344 137.294 50.2795 136.629 49.6818 135.963 49.0879 135.43 48.3586 135.024 47.4977 134.618 46.6369 134.415 45.6595 134.415 44.5693 134.415 43.4904 134.618 42.5243 135.024 41.6634 135.43 40.8026 135.963 40.077 136.629 39.4793 137.294 38.8854 138.05 38.4267 138.896 38.1034 139.741 37.7801 140.614 37.6223 141.508 37.6223 142.403 37.6223 143.275 37.7839 144.121 38.1034 144.967 38.4267 145.722 38.8854 146.388 39.4793 147.053 40.0733 147.587 40.8026 147.993 41.6634 148.399 42.5243 148.602 43.4942 148.602 44.5693 148.602 45.6595 148.399 46.6369 147.993 47.4977ZM146.106 42.3626C145.813 41.7198 145.425 41.1785 144.94 40.7349 144.459 40.2951 143.914 39.9567 143.313 39.7274 142.711 39.4981 142.11 39.3816 141.508 39.3816 140.892 39.3816 140.283 39.4981 139.681 39.7274 139.08 39.9567 138.542 40.2951 138.065 40.7349 137.587 41.1747 137.204 41.7198 136.911 42.3626 136.618 43.0055 136.471 43.7423 136.471 44.5655 136.471 45.3926 136.618 46.1294 136.911 46.7797 137.204 47.4301 137.591 47.9751 138.065 48.4187 138.542 48.8586 139.08 49.1969 139.681 49.4262 140.283 49.6555 140.892 49.772 141.508 49.772 142.11 49.772 142.711 49.6555 143.313 49.4262 143.914 49.1969 144.455 48.8586 144.94 48.4187 145.422 47.9789 145.813 47.4338 146.106 46.7797 146.399 46.1294 146.546 45.3926 146.546 44.5655 146.546 43.7423 146.399 43.0092 146.106 42.3626Z" fill="#009CAD" transform="matrix(1 0 0 1.0622 -2.13659e-14 -1.01215)"/><path d="M156.263 51.287 156.263 37.8929 158.319 37.8929 158.319 49.5427 164.218 49.5427 164.218 51.2833 156.263 51.2833Z" fill="#009CAD" transform="matrix(1 0 0 1.0622 -2.13659e-14 -1.01215)"/><path d="M171.439 51.287 171.439 37.8929 173.495 37.8929 173.495 51.2833 171.439 51.2833Z" fill="#009CAD" transform="matrix(1 0 0 1.0622 -2.13659e-14 -1.01215)"/><path d="M192.261 40.265C192.092 40.1672 191.889 40.0658 191.652 39.9605 191.416 39.8552 191.149 39.7613 190.856 39.6786 190.562 39.5958 190.25 39.5244 189.919 39.468 189.589 39.4116 189.25 39.3853 188.901 39.3853 188.243 39.3853 187.593 39.4943 186.95 39.7124 186.307 39.9304 185.728 40.25 185.217 40.6785 184.705 41.1071 184.292 41.6446 183.98 42.295 183.668 42.9453 183.506 43.7122 183.506 44.5919 183.506 45.4602 183.66 46.2196 183.969 46.8699 184.277 47.5203 184.687 48.0578 185.198 48.4864 185.709 48.9149 186.284 49.2345 186.931 49.4525 187.577 49.6706 188.232 49.7796 188.904 49.7796 189.701 49.7796 190.412 49.7044 191.036 49.5503 191.66 49.3961 192.179 49.1931 192.6 48.9413L192.179 50.8923C191.758 51.1179 191.288 51.2795 190.762 51.3848 190.235 51.49 189.54 51.5426 188.671 51.5426 187.833 51.5426 186.98 51.396 186.123 51.1028 185.262 50.8096 184.484 50.3735 183.792 49.7908 183.1 49.2119 182.536 48.4864 182.104 47.618 181.672 46.7496 181.454 45.7422 181.454 44.5956 181.454 43.434 181.676 42.419 182.115 41.5506 182.555 40.6823 183.123 39.9605 183.814 39.3778 184.506 38.7989 185.281 38.3591 186.134 38.0658 186.987 37.7726 187.833 37.626 188.675 37.626 189.6 37.626 190.386 37.7125 191.036 37.8892 191.686 38.0658 192.216 38.2688 192.622 38.5094L192.261 40.265Z" fill="#009CAD" transform="matrix(1 0 0 1.0622 -2.13659e-14 -1.01215)"/><path d="M200.344 51.287 200.344 37.8929 202.4 37.8929 202.4 51.2833 200.344 51.2833Z" fill="#009CAD" transform="matrix(1 0 0 1.0622 -2.13659e-14 -1.01215)"/><path d="M215.982 39.6372 215.982 51.287 213.926 51.287 213.926 39.6372 209.622 39.6372 209.622 37.8967 220.286 37.8967 220.286 39.6372 215.982 39.6372Z" fill="#009CAD" transform="matrix(1 0 0 1.0622 -2.13659e-14 -1.01215)"/><path d="M239.598 47.4977C239.192 48.3586 238.658 49.0879 237.992 49.6818 237.327 50.2758 236.571 50.7344 235.726 51.0577 234.88 51.381 234.008 51.5389 233.113 51.5389 232.218 51.5389 231.346 51.3772 230.5 51.0577 229.654 50.7344 228.899 50.2795 228.233 49.6818 227.568 49.0879 227.034 48.3586 226.628 47.4977 226.222 46.6369 226.019 45.6595 226.019 44.5693 226.019 43.4904 226.222 42.5243 226.628 41.6634 227.034 40.8026 227.568 40.077 228.233 39.4793 228.899 38.8854 229.654 38.4267 230.5 38.1034 231.346 37.7801 232.218 37.6223 233.113 37.6223 234.008 37.6223 234.88 37.7839 235.726 38.1034 236.571 38.4267 237.327 38.8854 237.992 39.4793 238.658 40.0733 239.192 40.8026 239.598 41.6634 240.004 42.5243 240.207 43.4942 240.207 44.5693 240.207 45.6595 240.004 46.6369 239.598 47.4977ZM237.707 42.3626C237.413 41.7198 237.026 41.1785 236.541 40.7349 236.06 40.2951 235.515 39.9567 234.914 39.7274 234.312 39.4981 233.711 39.3816 233.109 39.3816 232.493 39.3816 231.884 39.4981 231.282 39.7274 230.681 39.9567 230.139 40.2951 229.666 40.7349 229.188 41.1747 228.805 41.7198 228.512 42.3626 228.218 43.0055 228.072 43.7423 228.072 44.5655 228.072 45.3926 228.218 46.1294 228.512 46.7797 228.805 47.4301 229.192 47.9751 229.666 48.4187 230.139 48.8586 230.681 49.1969 231.282 49.4262 231.884 49.6555 232.493 49.772 233.109 49.772 233.711 49.772 234.312 49.6555 234.914 49.4262 235.515 49.1969 236.056 48.8586 236.541 48.4187 237.022 47.9789 237.413 47.4338 237.707 46.7797 238 46.1294 238.146 45.3926 238.146 44.5655 238.146 43.7423 238 43.0092 237.707 42.3626Z" fill="#009CAD" transform="matrix(1 0 0 1.0622 -2.13659e-14 -1.01215)"/><path d="M255.969 51.287 251.751 45.4114 249.86 45.4114 249.86 51.287 247.845 51.287 247.845 37.8929 252.086 37.8929C252.563 37.8929 253.037 37.9719 253.514 38.1222 253.992 38.2764 254.42 38.5057 254.804 38.8139 255.187 39.1222 255.503 39.5131 255.747 39.9906 255.991 40.468 256.116 41.0206 256.116 41.6484 256.116 42.5431 255.886 43.2761 255.435 43.84 254.98 44.4076 254.424 44.8249 253.766 45.0881L258.341 51.2795 255.969 51.2795ZM253.871 40.7462C253.747 40.4943 253.574 40.2838 253.356 40.1146 253.138 39.9455 252.89 39.8214 252.612 39.7387 252.33 39.656 252.044 39.6109 251.751 39.6109L249.883 39.6109 249.883 43.6821 251.751 43.6821C252.044 43.6821 252.33 43.6445 252.612 43.5656 252.89 43.4904 253.138 43.3663 253.356 43.1972 253.574 43.028 253.743 42.8175 253.871 42.5581 253.995 42.2987 254.059 41.9942 254.059 41.6446 254.059 41.3025 253.995 40.998 253.871 40.7462Z" fill="#009CAD" transform="matrix(1 0 0 1.0622 -2.13659e-14 -1.01215)"/><path d="M272.509 49.1217C272.314 49.6104 272.021 50.0352 271.63 50.3923 271.239 50.7495 270.754 51.0239 270.183 51.2231 269.607 51.4186 268.946 51.5163 268.19 51.5163 267.461 51.5163 266.792 51.4261 266.175 51.2419 265.559 51.0615 265.078 50.8509 264.728 50.6104L264.266 48.3849C264.908 48.8322 265.559 49.1706 266.213 49.4036 266.867 49.6367 267.559 49.7495 268.284 49.7495 269.036 49.7495 269.637 49.5615 270.085 49.1819 270.532 48.8059 270.754 48.3022 270.754 47.6706 270.754 47.0842 270.57 46.5918 270.201 46.2008 269.833 45.8098 269.243 45.479 268.435 45.2159 267.235 44.8249 266.329 44.2949 265.717 43.6295 265.104 42.9641 264.796 42.1709 264.796 41.2461 264.796 40.7838 264.882 40.3327 265.059 39.8928 265.232 39.453 265.495 39.062 265.844 38.7237 266.194 38.3854 266.634 38.1147 267.164 37.9155 267.694 37.7162 268.314 37.6147 269.028 37.6147 269.698 37.6147 270.292 37.6974 270.81 37.8629 271.329 38.0283 271.705 38.2012 271.942 38.3816L271.543 40.0507C271.307 39.8815 270.949 39.7124 270.476 39.5357 270.002 39.3628 269.491 39.2726 268.95 39.2726 268.265 39.2726 267.728 39.453 267.337 39.8176 266.946 40.1823 266.75 40.6071 266.75 41.0995 266.75 41.9942 267.472 42.6897 268.912 43.1784 269.498 43.3739 270.032 43.6069 270.506 43.8701 270.983 44.137 271.389 44.4415 271.735 44.7836 272.077 45.1257 272.344 45.5204 272.532 45.9677 272.72 46.4151 272.814 46.9188 272.814 47.4789 272.803 48.0879 272.705 48.633 272.509 49.1217Z" fill="#009CAD" transform="matrix(1 0 0 1.0622 -2.13659e-14 -1.01215)"/></g></svg>